PathFileType	4	(X/Y/Z)	/Users/mathieubourgeois/Desktop/Analyse/Traitement/Sujet_03/Transformed_Static_Sujet_03_Tpose.trc
DataRate	CameraRate	NumFrames	NumMarkers	Units	OrigDataRate	OrigDataStartFrame	OrigNumFrames
120.000000	120.000000	5	36	mm	120.000000	61	244
Frame#	Time	RFHD			LFHD			RBHD			LBHD			C7			CLAV			RSHO			LSHO			STRN			T10			RBWT			LBWT			RFWT			LFWT			RKNI			LKNI			RKNE			LKNE			LANI			RANI			LANE			RANE			LTOE			RTOE			LHEE			RHEE			RHUM			LHUM			RRAD			LRAD			RWRA			RWRB			LWRA			LWRB			RCAR			LCAR			
		X1	Y1	Z1	X2	Y2	Z2	X3	Y3	Z3	X4	Y4	Z4	X5	Y5	Z5	X6	Y6	Z6	X7	Y7	Z7	X8	Y8	Z8	X9	Y9	Z9	X10	Y10	Z10	X11	Y11	Z11	X12	Y12	Z12	X13	Y13	Z13	X14	Y14	Z14	X15	Y15	Z15	X16	Y16	Z16	X17	Y17	Z17	X18	Y18	Z18	X19	Y19	Z19	X20	Y20	Z20	X21	Y21	Z21	X22	Y22	Z22	X23	Y23	Z23	X24	Y24	Z24	X25	Y25	Z25	X26	Y26	Z26	X27	Y27	Z27	X28	Y28	Z28	X29	Y29	Z29	X30	Y30	Z30	X31	Y31	Z31	X32	Y32	Z32	X33	Y33	Z33	X34	Y34	Z34	X35	Y35	Z35	X36	Y36	Z36	

62	0.5083333333333333	-732.3062744140625	1772.43505859375	298.9827880859373	-577.0211181640625	1768.077026367188	292.0923461914061	-738.30517578125	1734.62890625	170.6840362548826	-590.324951171875	1733.655151367188	146.9665832519529	-652.5054321289062	1575.532104492188	132.5906829833983	-649.4579467773438	1505.157104492188	265.852081298828	-805.45751953125	1589.349731445312	157.9307556152342	-498.1143188476562	1594.371215820312	139.6927185058592	-646.930419921875	1338.3505859375	313.3431091308593	-648.92431640625	1333.005493164062	92.57041168212874	-719.7271728515625	1090.794555664062	120.7774353027342	-599.8800048828125	1089.718017578125	126.1350936889647	-791.2442016601562	1055.819091796875	283.0432739257811	-538.0089111328125	1038.574584960938	291.4023132324218	-730.8573608398438	478.8126525878906	166.9508361816405	-591.2192993164062	480.1756286621094	154.992218017578	-840.6693115234375	533.3991088867188	171.6190185546874	-487.2288818359375	525.3657836914062	164.6803436279296	-586.0308837890625	94.97424316406251	139.698745727539	-730.0042114257812	98.16204071044923	159.9688110351562	-496.4387512207031	75.14536285400392	120.0076751708984	-816.5810546875	82.28485107421876	130.9123687744139	-522.09765625	31.81348800659182	326.9346008300781	-797.5701904296875	32.38957977294924	341.7236938476561	-544.0473022460938	38.81810760498048	61.53458786010736	-766.8031005859375	39.32502365112305	74.02103424072256	-1094.0283203125	1494.040161132812	206.062561035156	-201.1946411132813	1507.3212890625	216.1816101074218	-1108.312866210938	1526.598266601562	136.1563262939451	-194.6955261230469	1539.246704101562	143.2465057373046	-1363.478515625	1615.020874023438	174.722473144531	-1371.739379882812	1554.258544921875	125.5843353271482	56.34883880615232	1601.839477539062	173.8944396972655	66.61065673828124	1530.732666015625	148.107452392578	-1471.101684570312	1601.972534179688	119.590148925781	166.1972503662109	1575.212524414062	157.6191406249999	
63	0.5166666666666666	-732.2384033203125	1772.430541992188	299.013000488281	-576.9627685546875	1768.07568359375	292.111846923828	-738.2495727539062	1734.640502929688	170.7031097412107	-590.2543334960938	1733.642211914062	146.9797058105467	-652.4568481445312	1575.526123046875	132.5835113525389	-649.4237670898438	1505.158935546875	265.871612548828	-805.4077758789062	1589.361694335938	157.9427185058592	-498.0719299316406	1594.335693359375	139.6971893310545	-646.9208984375	1338.345458984375	313.3468627929686	-648.89404296875	1332.999755859375	92.66172790527327	-719.721923828125	1090.78759765625	120.8014144897459	-599.8700561523438	1089.709594726562	126.1957931518553	-791.2832641601562	1055.821044921875	283.0758972167967	-538.0513305664062	1038.556762695312	291.4706115722655	-730.8757934570312	478.8195190429688	166.9783630371093	-591.2305908203125	480.17626953125	155.0258636474608	-840.68310546875	533.4047241210938	171.6490173339842	-487.2420043945312	525.356201171875	164.7279510498046	-586.0292358398438	94.96760559082033	139.7022705078124	-730.007568359375	98.16133117675783	159.9644470214843	-496.4307861328125	75.14965820312501	120.0106964111328	-816.5818481445312	82.2880325317383	130.9093627929686	-522.0969848632812	31.82353591918947	326.9305114746093	-797.5715942382812	32.38232803344729	341.7223815917968	-544.052001953125	38.81909179687501	61.54148864746087	-766.8108520507812	39.33416366577149	74.02069854736318	-1094.01416015625	1494.094116210938	206.0887603759763	-201.1696014404297	1507.275634765625	216.2181396484374	-1108.2724609375	1526.642456054688	136.1859893798826	-194.6644134521485	1539.194702148438	143.2600708007811	-1363.437255859375	1615.091064453125	174.7527160644529	-1371.695068359375	1554.344116210938	125.6005630493161	56.40301132202146	1601.7158203125	173.9288177490234	66.64168548583983	1530.617431640625	148.1243743896484	-1471.066528320312	1602.072021484375	119.642883300781	166.2390594482422	1575.071044921875	157.6228637695312	
64	0.525	-732.1626586914062	1772.439086914062	299.0343933105466	-576.8800659179688	1768.062377929688	292.1275634765623	-738.19140625	1734.646484375	170.7297210693357	-590.2068481445312	1733.630004882812	146.9833526611326	-652.4210815429688	1575.511474609375	132.6121368408201	-649.395751953125	1505.162841796875	265.8685302734373	-805.3703002929688	1589.364013671875	157.9417572021483	-498.0291442871094	1594.301147460938	139.7029724121092	-646.9032592773438	1338.339477539062	313.3649902343749	-648.8623046875	1332.962890625	92.68343353271467	-719.7383422851562	1090.773071289062	120.8633193969725	-599.8714599609375	1089.690551757812	126.262969970703	-791.309814453125	1055.82763671875	283.1097106933592	-538.0861206054688	1038.543090820312	291.5692138671874	-730.8797607421875	478.8045654296875	166.9938507080077	-591.24365234375	480.1684875488281	155.0732269287108	-840.7024536132812	533.3973999023438	171.6631774902342	-487.2606506347656	525.3621826171875	164.7937622070312	-586.0277099609375	94.96561431884767	139.6977386474609	-730.0028076171875	98.16860198974611	159.9659118652343	-496.4429931640625	75.14760589599611	120.0129318237304	-816.5780029296875	82.28805541992189	130.9138793945311	-522.098876953125	31.82489013671877	326.9351806640624	-797.5741577148438	32.39580917358401	341.7228088378905	-544.0528564453125	38.82753372192384	61.538833618164	-766.8004760742188	39.33691024780274	74.01882934570303	-1093.958374023438	1494.140625	206.1030578613279	-201.1486511230469	1507.231201171875	216.2436676025389	-1108.232299804688	1526.682250976562	136.196823120117	-194.6319274902344	1539.119140625	143.2916564941405	-1363.391357421875	1615.16845703125	174.780822753906	-1371.649536132812	1554.409545898438	125.6338195800779	56.45364761352537	1601.5966796875	173.9373168945312	66.66635131835936	1530.48583984375	148.1322174072265	-1471.010009765625	1602.1494140625	119.6972579956052	166.2686157226562	1574.919311523438	157.6275329589843	
65	0.5333333333333333	-732.0861206054688	1772.433349609375	299.0595092773435	-576.8164672851562	1768.03857421875	292.1270751953123	-738.12646484375	1734.647827148438	170.7257385253904	-590.152587890625	1733.618286132812	146.9904632568357	-652.3734741210938	1575.504516601562	132.6065063476561	-649.361083984375	1505.157958984375	265.8625183105467	-805.3358154296875	1589.3779296875	157.9418487548826	-497.9815673828125	1594.281372070312	139.7166442871092	-646.9024047851562	1338.353149414062	313.4042358398436	-648.8510131835938	1332.932739257812	92.76580047607405	-719.7244262695312	1090.778686523438	120.908981323242	-599.8779907226562	1089.679321289062	126.3252334594725	-791.339599609375	1055.83203125	283.1492919921873	-538.1366577148438	1038.528076171875	291.649444580078	-730.8925170898438	478.8070983886719	167.0464477539061	-591.2592163085938	480.1754150390625	155.1335144042968	-840.7059326171875	533.400146484375	171.6817016601561	-487.2702026367188	525.3426513671875	164.8716583251952	-586.0382080078125	94.97061157226564	139.7094421386718	-730.0099487304688	98.16949462890626	159.9721069335937	-496.4429626464844	75.1511917114258	120.0062637329101	-816.5823364257812	82.28501892089845	130.9197998046874	-522.09716796875	31.83110618591311	326.9444885253906	-797.5704956054688	32.39529800415041	341.729278564453	-544.0552368164062	38.82953643798829	61.52839660644525	-766.7972412109375	39.34030151367188	74.01136779785146	-1093.928955078125	1494.207397460938	206.1270446777341	-201.1097106933594	1507.184936523438	216.2622528076171	-1108.18603515625	1526.737915039062	136.2259063720701	-194.6082458496094	1539.052612304688	143.3293151855468	-1363.3447265625	1615.235595703125	174.8047637939451	-1371.6083984375	1554.47607421875	125.6709289550779	56.49760437011717	1601.48095703125	173.9345703124999	66.69131469726561	1530.376098632812	148.1354827880859	-1470.956787109375	1602.235595703125	119.7572326660153	166.3146057128906	1574.787109375	157.628433227539	
66	0.5416666666666666	-732.0104370117188	1772.42724609375	299.0820617675779	-576.746826171875	1768.0166015625	292.130401611328	-738.0712890625	1734.656127929688	170.7574157714842	-590.0980224609375	1733.608642578125	146.9879150390623	-652.326416015625	1575.479248046875	132.5882415771483	-649.3388671875	1505.162719726562	265.8846435546873	-805.2940063476562	1589.375366210938	157.9284820556639	-497.9544982910156	1594.255859375	139.7139739990233	-646.8941650390625	1338.351806640625	313.4223632812499	-648.8226318359375	1332.882202148438	92.80176544189436	-719.7421264648438	1090.79052734375	120.9699401855467	-599.8657836914062	1089.673095703125	126.401039123535	-791.3643188476562	1055.823852539062	283.1844482421873	-538.1741333007812	1038.511962890625	291.7470397949218	-730.9110717773438	478.8177490234375	167.0722198486327	-591.26220703125	480.1681213378906	155.1967315673827	-840.7277221679688	533.4033813476562	171.7184906005858	-487.2858276367188	525.3504638671875	164.9291076660155	-586.0343627929688	94.97164154052736	139.7088317871093	-730.018798828125	98.1813201904297	159.9757690429687	-496.4426879882812	75.15468597412111	120.0286636352538	-816.5792236328125	82.28420257568361	130.9215393066405	-522.1049194335938	31.83314132690432	326.9496154785156	-797.5728759765625	32.40010833740237	341.722930908203	-544.0549926757812	38.8427963256836	61.54167556762689	-766.7941284179688	39.33111190795899	74.03465270996084	-1093.90478515625	1494.270141601562	206.1654510498045	-201.0861358642578	1507.134765625	216.2981719970702	-1108.164794921875	1526.774536132812	136.2528686523435	-194.5722045898438	1538.990478515625	143.3343963623046	-1363.315063476562	1615.306518554688	174.8618469238279	-1371.5673828125	1554.531372070312	125.7226943969724	56.53930664062498	1601.357543945312	173.9522399902343	66.71380615234374	1530.270874023438	148.1200714111327	-1470.940673828125	1602.31396484375	119.8107452392575	166.3551635742187	1574.627319335938	157.638198852539	
